HIERARCHY
ROOT hip
{
  OFFSET 0 0 0
  CHANNELS 6 Xposition Yposition Zposition Zrotation Yrotation Xrotation
  JOINT abdomen
  {
    OFFSET 0 20.6881 -0.73152
    CHANNELS 3 Zrotation Xrotation Yrotation
    JOINT chest
    {
      OFFSET 0 11.7043 -0.48768
      CHANNELS 3 Zrotation Xrotation Yrotation
      JOINT neck
      {
        OFFSET 0 22.1894 -2.19456
        CHANNELS 3 Zrotation Xrotation Yrotation
        JOINT head
        {
          OFFSET -0.24384 7.07133 1.2192
          CHANNELS 3 Zrotation Xrotation Yrotation
          JOINT leftEye
          {
            OFFSET 4.14528 8.04674 8.04672
            CHANNELS 3 Zrotation Xrotation Yrotation
            End Site
            {
              OFFSET 1 0 0
            }
          }
          JOINT rightEye
          {
            OFFSET -3.6576 8.04674 8.04672
            CHANNELS 3 Zrotation Xrotation Yrotation
            End Site
            {
              OFFSET 1 0 0
            }
          }
        }
      }
      JOINT rCollar
      {
        OFFSET -2.68224 19.2634 -4.8768
        CHANNELS 3 Zrotation Xrotation Yrotation
        JOINT rShldr
        {
          OFFSET -8.77824 -1.95073 1.46304
          CHANNELS 3 Zrotation Xrotation Yrotation
          JOINT rForeArm
          {
            OFFSET -28.1742 -1.7115 0.48768
            CHANNELS 3 Zrotation Xrotation Yrotation
            JOINT rHand
            {
              OFFSET -22.5879 0.773209 7.07136
              CHANNELS 3 Zrotation Xrotation Yrotation
              JOINT rThumb1
              {
                OFFSET -1.2192 -0.487915 3.41376
                CHANNELS 3 Zrotation Xrotation Yrotation
                JOINT rThumb2
                {
                  OFFSET -3.37035 -0.52449 3.41376
                  CHANNELS 3 Zrotation Xrotation Yrotation
                  End Site
                  {
                    OFFSET -1.78271 -1.18214 1.43049
                  }
                }
              }
              JOINT rIndex1
              {
                OFFSET -7.75947 0.938293 5.60832
                CHANNELS 3 Zrotation Xrotation Yrotation
                JOINT rIndex2
                {
                  OFFSET -2.54057 -0.884171 1.56538
                  CHANNELS 3 Zrotation Xrotation Yrotation
                  End Site
                  {
                    OFFSET -1.62519 -0.234802 1.16502
                  }
                }
              }
              JOINT rMid1
              {
                OFFSET -8.24714 1.18213 3.41376
                CHANNELS 3 Zrotation Xrotation Yrotation
                JOINT rMid2
                {
                  OFFSET -3.10165 -0.590103 1.0647
                  CHANNELS 3 Zrotation Xrotation Yrotation
                  End Site
                  {
                    OFFSET -2.48547 -0.328903 0.83742
                  }
                }
              }
              JOINT rRing1
              {
                OFFSET -8.82822 0.546677 1.51678
                CHANNELS 3 Zrotation Xrotation Yrotation
                JOINT rRing2
                {
                  OFFSET -2.60934 -0.819778 -0.0198488
                  CHANNELS 3 Zrotation Xrotation Yrotation
                  End Site
                  {
                    OFFSET -2.33842 -0.294052 0.168128
                  }
                }
              }
              JOINT rPinky1
              {
                OFFSET -8.27202 -0.0477905 -0.4584
                CHANNELS 3 Zrotation Xrotation Yrotation
                JOINT rPinky2
                {
                  OFFSET -1.82734 -0.647385 -0.700984
                  CHANNELS 3 Zrotation Xrotation Yrotation
                  End Site
                  {
                    OFFSET -1.69225 -0.51767 -0.607171
                  }
                }
              }
            }
          }
        }
      }
      JOINT lCollar
      {
        OFFSET 2.68224 19.2634 -4.8768
        CHANNELS 3 Zrotation Xrotation Yrotation
        JOINT lShldr
        {
          OFFSET 8.77824 -1.95073 1.46304
          CHANNELS 3 Zrotation Xrotation Yrotation
          JOINT lForeArm
          {
            OFFSET 28.1742 -1.7115 0.48768
            CHANNELS 3 Zrotation Xrotation Yrotation
            JOINT lHand
            {
              OFFSET 22.5879 0.773209 7.07136
              CHANNELS 3 Zrotation Xrotation Yrotation
              JOINT lThumb1
              {
                OFFSET 1.2192 -0.487915 3.41376
                CHANNELS 3 Zrotation Xrotation Yrotation
                JOINT lThumb2
                {
                  OFFSET 3.37035 -0.52449 3.41376
                  CHANNELS 3 Zrotation Xrotation Yrotation
                  End Site
                  {
                    OFFSET 1.78271 -1.18214 1.43049
                  }
                }
              }
              JOINT lIndex1
              {
                OFFSET 7.75947 0.938293 5.60832
                CHANNELS 3 Zrotation Xrotation Yrotation
                JOINT lIndex2
                {
                  OFFSET 2.54057 -0.884171 1.56538
                  CHANNELS 3 Zrotation Xrotation Yrotation
                  End Site
                  {
                    OFFSET 1.62519 -0.234802 1.16502
                  }
                }
              }
              JOINT lMid1
              {
                OFFSET 8.24714 1.18213 3.41376
                CHANNELS 3 Zrotation Xrotation Yrotation
                JOINT lMid2
                {
                  OFFSET 3.10165 -0.590103 1.0647
                  CHANNELS 3 Zrotation Xrotation Yrotation
                  End Site
                  {
                    OFFSET 2.48547 -0.328903 0.83742
                  }
                }
              }
              JOINT lRing1
              {
                OFFSET 8.82822 0.546677 1.51678
                CHANNELS 3 Zrotation Xrotation Yrotation
                JOINT lRing2
                {
                  OFFSET 2.60934 -0.819778 -0.0198488
                  CHANNELS 3 Zrotation Xrotation Yrotation
                  End Site
                  {
                    OFFSET 2.33842 -0.294052 0.168128
                  }
                }
              }
              JOINT lPinky1
              {
                OFFSET 8.27202 -0.0477905 -0.4584
                CHANNELS 3 Zrotation Xrotation Yrotation
                JOINT lPinky2
                {
                  OFFSET 1.82734 -0.647385 -0.700984
                  CHANNELS 3 Zrotation Xrotation Yrotation
                  End Site
                  {
                    OFFSET 1.69225 -0.51767 -0.607171
                  }
                }
              }
            }
          }
        }
      }
    }
  }
  JOINT rButtock
  {
    OFFSET -8.77824 4.35084 1.2192
    CHANNELS 3 Zrotation Xrotation Yrotation
    JOINT rThigh
    {
      OFFSET 0 -1.70687 -2.19456
      CHANNELS 3 Zrotation Xrotation Yrotation
      JOINT rShin
      {
        OFFSET 0 -36.8199 0.73152
        CHANNELS 3 Zrotation Xrotation Yrotation
        JOINT rFoot
        {
          OFFSET 0.73152 -45.1104 -5.12064
          CHANNELS 3 Zrotation Xrotation Yrotation
          End Site
          {
            OFFSET -1.1221 -3.69964 12.103
          }
        }
      }
    }
  }
  JOINT lButtock
  {
    OFFSET 8.77824 4.35084 1.2192
    CHANNELS 3 Zrotation Xrotation Yrotation
    JOINT lThigh
    {
      OFFSET 0 -1.70687 -2.19456
      CHANNELS 3 Zrotation Xrotation Yrotation
      JOINT lShin
      {
        OFFSET 0 -36.8199 0.73152
        CHANNELS 3 Zrotation Xrotation Yrotation
        JOINT lFoot
        {
          OFFSET -0.73152 -45.1104 -5.12064
          CHANNELS 3 Zrotation Xrotation Yrotation
          End Site
          {
            OFFSET 1.1221 -3.69964 12.103
          }
        }
      }
    }
  }
}
MOTION
Frames:	5
Frame Time:	0.00833333
66.1911 85.2982 -3.87439 0.0 0.0 0.0 0.984349 -0.00436097 0.0272512 0.271543 -0.00455357 0.0470442 1.12842e-14 0.0 7.45442e-17 3.39363e-14 3.18055e-15 2.2208e-16 -0.0 0.0 0.0 -0.0 0.0 0.0 5.76361e-15 -2.13538e-18 1.98785e-16 1.21661e-13 1.73937e-16 2.18663e-15 2.06736e-12 -6.16232e-13 -3.18055e-15 2.36144e-11 6.19786e-13 1.94014e-13 5.57033e-11 3.19955e-15 4.32555e-13 9.61915e-11 6.36111e-15 7.52996e-13 5.57042e-11 3.57812e-15 4.19833e-13 7.73091 5.47488 0.417314 5.57017e-11 2.78299e-15 4.38917e-13 2.90554 0.965183 0.102902 5.57093e-11 3.18055e-15 4.38917e-13 10.2786 0.731801 0.0259123 5.56949e-11 5.1684e-15 4.54819e-13 2.22167 -0.733487 -0.20892 5.66688e-15 -9.70628e-19 -9.93923e-17 1.1735e-13 1.86361e-16 3.97569e-16 2.05802e-12 6.17823e-13 -9.54166e-15 2.3598e-11 -6.23488e-13 2.19458e-13 5.56601e-11 -1.74302e-14 4.45278e-13 9.61346e-11 -3.81667e-14 7.53791e-13 5.56561e-11 -1.82882e-14 4.54819e-13 -7.73091 5.47488 -0.417314 5.56612e-11 -1.78906e-14 4.38917e-13 -2.90554 0.965183 -0.102902 5.56521e-11 -1.71949e-14 4.38121e-13 -10.2786 0.731801 -0.0259123 5.56706e-11 -1.39149e-14 4.26194e-13 -2.22167 -0.733487 0.20892 -2.03217e-16 0.0 -3.88251e-19 1.24891 -5.45296 -0.109168 6.85786e-05 4.32231 0.0238742 -0.510771 1.12952 0.0812468 2.03217e-16 0.0 3.88251e-19 0.249761 -1.91924 0.0129217 0.00928299 -2.07855 0.0766785 0.496158 3.99654 -0.137931
59.9077 84.1889 -11.1587 149.602 -82.1568 -146.459 0.673068 -1.02581 -0.125518 1.12799 1.64702 -0.0349768 -0.941177 -1.99551 0.381303 -0.0642745 5.65042 0.711132 -0.0 0.0 0.0 -0.0 0.0 0.0 2.00006e-14 1.8652e-13 -3.99646e-14 21.8798 5.44457 0.784868 -3.97938 -1.76282 6.26367 0.022097 -3.29846 -0.460797 4.66467e-10 7.1957e-10 1.7954e-09 7.96055e-10 1.24422e-09 3.10605e-09 4.66468e-10 7.19569e-10 1.79539e-09 7.73091 5.47488 0.417314 4.66465e-10 7.19569e-10 1.7954e-09 2.90554 0.965183 0.102902 4.66471e-10 7.19569e-10 1.7954e-09 10.2786 0.731801 0.0259123 4.66459e-10 7.19571e-10 1.79542e-09 2.22167 -0.733487 -0.20892 1.9875e-14 1.86518e-13 -4.02799e-14 -23.1502 8.30809 -1.86639 3.20375 -1.29916 -5.16103 -0.0113806 -2.37163 0.332287 5.87894e-10 1.51941e-10 -2.22034e-09 1.02467e-09 2.63516e-10 -3.83408e-09 5.8789e-10 1.51941e-10 -2.22032e-09 -7.73091 5.47488 -0.417314 5.87894e-10 1.51941e-10 -2.22034e-09 -2.90554 0.965183 -0.102902 5.87886e-10 1.51941e-10 -2.22034e-09 -10.2786 0.731801 -0.0259123 5.87902e-10 1.51944e-10 -2.22035e-09 -2.22167 -0.733487 0.20892 -2.03217e-16 0.0 -3.88251e-19 -1.02067 -6.81246 -0.634583 0.0109724 8.57087 0.095313 -0.347296 -2.61216 0.30534 2.03217e-16 0.0 3.88251e-19 1.9944 -3.52858 -1.96127 -0.0114713 3.14483 -0.0681719 0.945918 -0.768031 5.64244
59.9469 84.2144 -11.5318 153.192 -82.4508 -150.188 0.33794 -2.10737 -0.279758 2.03565 3.39268 -0.119538 -1.91239 -4.141 0.782067 -0.259769 11.6761 1.4774 -0.0 0.0 0.0 -0.0 0.0 0.0 3.63238e-14 4.00615e-13 -8.5965e-14 44.8444 11.1929 1.64383 -7.77006 -3.55633 12.9046 -0.0125904 -6.78153 -0.952587 9.33235e-10 1.52758e-09 3.81479e-09 1.59145e-09 2.64133e-09 6.59963e-09 9.33237e-10 1.52758e-09 3.81478e-09 7.73091 5.47488 0.417314 9.33234e-10 1.52758e-09 3.81478e-09 2.90554 0.965183 0.102902 9.33238e-10 1.52758e-09 3.81479e-09 10.2786 0.731801 0.0259123 9.33228e-10 1.52758e-09 3.8148e-09 2.22167 -0.733487 -0.20892 3.61667e-14 4.0061e-13 -8.63005e-14 -47.0079 17.0729 -3.98634 6.33541 -2.63632 -10.6225 0.00667748 -4.89615 0.68794 1.19675e-09 3.14557e-10 -4.72152e-09 2.08672e-09 5.45567e-10 -8.1531e-09 1.19674e-09 3.14558e-10 -4.7215e-09 -7.73091 5.47488 -0.417314 1.19675e-09 3.14557e-10 -4.72152e-09 -2.90554 0.965183 -0.102902 1.19674e-09 3.14558e-10 -4.72152e-09 -10.2786 0.731801 -0.0259123 1.19675e-09 3.1456e-10 -4.72153e-09 -2.22167 -0.733487 0.20892 -2.03217e-16 0.0 -3.88251e-19 -3.44395 -8.2537 -1.15898 0.0107386 13.0531 0.173191 -0.147827 -6.54125 0.513666 2.03217e-16 0.0 3.88251e-19 3.71293 -5.23073 -4.05644 -0.00448967 8.6765 -0.223946 2.46609 -5.70056 11.8137
60.114 84.2013 -11.6933 152.224 -82.4931 -149.097 0.0341472 -3.06863 -0.431614 2.85512 4.95013 -0.19972 -2.74348 -5.98546 1.14948 -0.629739 16.9406 2.21938 -0.0 0.0 0.0 -0.0 0.0 0.0 4.84744e-14 5.59565e-13 -1.20291e-13 65.176 16.3212 2.44246 -10.8011 -5.03614 18.8576 -0.0949033 -9.8928 -1.40094 1.28799e-09 2.1587e-09 5.38533e-09 2.19578e-09 3.73265e-09 9.31664e-09 1.288e-09 2.1587e-09 5.38532e-09 7.73091 5.47488 0.417314 1.28799e-09 2.1587e-09 5.38532e-09 2.90554 0.965183 0.102902 1.288e-09 2.1587e-09 5.38533e-09 10.2786 0.731801 0.0259123 1.28799e-09 2.1587e-09 5.38534e-09 2.22167 -0.733487 -0.20892 4.82911e-14 5.59557e-13 -1.20641e-13 -67.6896 24.8129 -6.10592 8.91732 -3.77118 -15.5135 0.0489246 -7.11393 1.00374 1.65236e-09 4.55857e-10 -6.6619e-09 2.88175e-09 7.90624e-10 -1.15037e-08 1.65236e-09 4.55858e-10 -6.66188e-09 -7.73091 5.47488 -0.417314 1.65236e-09 4.55858e-10 -6.66189e-09 -2.90554 0.965183 -0.102902 1.65235e-09 4.55858e-10 -6.6619e-09 -10.2786 0.731801 -0.0259123 1.65236e-09 4.55859e-10 -6.66191e-09 -2.22167 -0.733487 0.20892 -2.03217e-16 0.0 -3.88251e-19 -5.63564 -9.52859 -1.69637 -0.000396681 17.0679 0.245966 0.0686996 -10.0948 0.764441 2.03217e-16 0.0 3.88251e-19 5.14959 -6.71753 -5.93939 0.0277861 13.5913 -0.367763 4.71583 -9.84265 17.4661
60.4019 84.2046 -12.0222 155.408 -82.6966 -152.112 -0.180972 -3.72921 -0.577032 3.44473 6.03707 -0.268311 -3.28211 -7.07832 1.42788 -1.12243 20.312 2.81723 -0.0 0.0 0.0 -0.0 0.0 0.0 5.01939e-14 5.80654e-13 -1.25433e-13 79.2619 19.9118 3.00571 -12.7275 -5.97215 23.0271 -0.182296 -12.077 -1.72316 1.36273e-09 2.34759e-09 5.83376e-09 2.32248e-09 4.05949e-09 1.00922e-08 1.36273e-09 2.34759e-09 5.83375e-09 7.73091 5.47488 0.417314 1.36273e-09 2.34759e-09 5.83375e-09 2.90554 0.965183 0.102902 1.36273e-09 2.34759e-09 5.83376e-09 10.2786 0.731801 0.0259123 1.36272e-09 2.34759e-09 5.83377e-09 2.22167 -0.733487 -0.20892 4.99969e-14 5.80645e-13 -1.25781e-13 -81.7432 30.1002 -7.7344 10.6094 -4.51998 -18.9493 0.0908456 -8.56588 1.213 1.72488e-09 5.43865e-10 -7.20028e-09 3.00923e-09 9.43194e-10 -1.24335e-08 1.72488e-09 5.43867e-10 -7.20026e-09 -7.73091 5.47488 -0.417314 1.72488e-09 5.43865e-10 -7.20027e-09 -2.90554 0.965183 -0.102902 1.72488e-09 5.43865e-10 -7.20028e-09 -10.2786 0.731801 -0.0259123 1.72489e-09 5.43867e-10 -7.20029e-09 -2.22167 -0.733487 0.20892 -2.03217e-16 0.0 -3.88251e-19 -7.20207 -10.3892 -2.25881 -0.0150569 19.9142 0.29932 0.286469 -12.7095 1.11467 2.03217e-16 0.0 3.88251e-19 6.12067 -7.69286 -7.26563 0.0651597 16.9645 -0.470954 6.75441 -12.4768 21.5153
